<?xml version="1.0" encoding="UTF-8"?>
<svg width="490px" height="252px" viewBox="0 0 490 252" version="1.1" xmlns="http://www.w3.org/2000/svg" xmlns:xlink="http://www.w3.org/1999/xlink">
    <title>Logo A</title>
    <g id="Logos" stroke="none" stroke-width="1" fill="none" fill-rule="evenodd">
        <g id="Logo-H" transform="translate(-295.000000, -414.000000)" fill="#FFFFFF">
            <g id="Logo_E" transform="translate(295.000000, 414.000000)">
                <path d="M358.323465,22.8795797 L358.323465,189.500373 L280.612412,137.596616 L280.612412,203.242243 L226.399627,212.661791 L226.399627,45.802642 L304.11068,97.6994177 L304.11068,32.2991283 L358.323465,22.8795797 Z M490,0 L490,54.3471549 L458.23632,59.8662424 L458.23632,172.378237 L403.937604,181.812745 L403.937604,69.0643891 L372.173924,74.5824793 L372.173924,20.4726831 L490,0 Z M144.486823,60.0356845 L144.486823,226.894834 L90.2740387,236.314382 L90.2740387,176.721402 L54.2127847,182.987471 L54.2127847,242.581449 L0.00599522095,252 L0,252 L0,85.1408508 L54.2127847,75.7222995 L54.2127847,135.314283 L90.2740387,129.048214 L90.2740387,69.4552331 L144.486823,60.0356845 Z M212.549468,48.2095386 L212.549468,215.068688 L158.336683,224.488236 L158.336683,57.6290871 L212.549468,48.2095386 Z" id="Hint-logo"></path>
            </g>
        </g>
    </g>
</svg>